<?xml version="1.0" encoding="UTF-8"?>
<svg id="_圖層_1" data-name="圖層 1" xmlns="http://www.w3.org/2000/svg" viewBox="0 0 68.7 72">
  <defs>
    <style>
      .cls-1 {
        fill: #fff;
      }
    </style>
  </defs>
  <path class="cls-1" d="m68.7,20h-7.18c-1.37-4.33-3.76-8.31-7.06-11.61C49.04,2.98,41.84,0,34.19,0,21.41,0,10.55,8.42,6.87,20H.03s0,0,0,0h-.03l9.54,49.77c0,1.23,11.11,2.23,24.81,2.23s24.81-1,24.81-2.23l8.02-41.84,1.52-7.91h0v-.03ZM34.19,6.68c5.87,0,11.39,2.29,15.54,6.43,2.01,2.01,3.57,4.35,4.66,6.89H13.99c3.37-7.83,11.15-13.32,20.2-13.32Zm8.66,47.21c-.79,1.18-1.9,2.11-3.32,2.78-.8.38-1.68.63-2.63.8v3.13h-4.69v-3.16c-.85-.16-1.65-.42-2.4-.77-1.4-.66-2.55-1.6-3.43-2.81s-1.45-2.65-1.69-4.3l4.66-.72c.31,1.36.96,2.44,1.96,3.24.99.8,2.18,1.21,3.56,1.21,1.3,0,2.38-.3,3.23-.91.86-.61,1.28-1.36,1.28-2.26,0-.61-.19-1.11-.56-1.51-.37-.4-.96-.72-1.75-.97l-6.14-1.9c-3.54-1.09-5.31-3.25-5.31-6.48,0-1.52.36-2.83,1.08-3.95.72-1.11,1.74-1.97,3.05-2.58.74-.34,1.57-.57,2.46-.72v-3.1h4.69v3.21c.67.15,1.31.35,1.9.61,1.28.57,2.34,1.39,3.2,2.47.86,1.08,1.48,2.38,1.87,3.92l-4.83.86c-.16-.73-.46-1.38-.9-1.94-.44-.56-.98-.99-1.63-1.31-.65-.32-1.37-.49-2.16-.51-.76-.02-1.45.09-2.06.33-.62.24-1.1.58-1.47,1.01-.36.43-.54.92-.54,1.46,0,.6.25,1.11.76,1.54.51.43,1.31.8,2.41,1.11l4.38,1.24c2.2.63,3.78,1.49,4.75,2.57.97,1.08,1.46,2.51,1.46,4.29,0,1.56-.4,2.94-1.19,4.12Z"/>
</svg>